Coordinates
version=1
nRows=38
nColumns=12
inDegrees=yes

Units are S.I. units (second, meters, Newtons, ...)
Angles are in degrees

endheader
time	SC_y	SC_z	SC_x	AC_y	AC_z	AC_x	GH_y	GH_z	GH_yy	EL_x	PS_y
       0.0              -56.83          17.07          62.19          37.73          5.675          -13.8         -40.92          36.04         -171.6          130.9          58.32
  0.004412              -56.82          17.07          62.19          37.73          5.672          -13.8         -40.94          36.04         -171.5          130.9          58.32
  0.008824              -56.82          17.07          62.18          37.73          5.669         -13.79         -40.96          36.05         -171.5          130.9          58.32
   0.01324              -56.82          17.06          62.17          37.73          5.666         -13.79         -40.98          36.06         -171.5          130.9          58.32
   0.01765              -56.81          17.06          62.16          37.73          5.662         -13.79          -41.0          36.06         -171.4          130.8          58.32
   0.02206              -56.81          17.06          62.15          37.74          5.658         -13.79         -41.02          36.07         -171.4          130.8          58.32
   0.02647               -56.8          17.05          62.14          37.74          5.654         -13.79         -41.05          36.08         -171.4          130.8          58.31
   0.03088               -56.8          17.05          62.13          37.74           5.65         -13.78         -41.07          36.09         -171.3          130.8          58.31
    0.0353              -56.79          17.04          62.12          37.74          5.645         -13.78          -41.1           36.1         -171.3          130.8          58.31
   0.03971              -56.79          17.04          62.11          37.74           5.64         -13.78         -41.13           36.1         -171.2          130.7          58.31
   0.04412              -56.78          17.03           62.1          37.74          5.634         -13.77         -41.17          36.11         -171.2          130.7           58.3
   0.04853              -56.78          17.03          62.08          37.74          5.628         -13.77          -41.2          36.13         -171.1          130.7           58.3
   0.05294              -56.77          17.02          62.07          37.74          5.622         -13.77         -41.24          36.14         -171.0          130.6           58.3
   0.05736              -56.76          17.01          62.05          37.75          5.615         -13.76         -41.28          36.15         -171.0          130.6           58.3
   0.06177              -56.75          17.01          62.03          37.75          5.608         -13.76         -41.33          36.16         -170.9          130.6          58.29
   0.06618              -56.75           17.0          62.02          37.75            5.6         -13.75         -41.38          36.18         -170.8          130.5          58.29
   0.07059              -56.74          16.99          61.99          37.75          5.591         -13.75         -41.43           36.2         -170.7          130.5          58.28
   0.07501              -56.73          16.98          61.97          37.75          5.582         -13.74         -41.49          36.21         -170.6          130.4          58.28
   0.07942              -56.72          16.97          61.95          37.76          5.571         -13.74         -41.55          36.23         -170.5          130.4          58.27
   0.08383               -56.7          16.96          61.92          37.76           5.56         -13.73         -41.62          36.25         -170.4          130.3          58.27
   0.08824              -56.69          16.95          61.89          37.76          5.547         -13.72         -41.69          36.28         -170.3          130.2          58.26
   0.09265              -56.68          16.93          61.86          37.77          5.534         -13.71         -41.78           36.3         -170.2          130.1          58.26
   0.09707              -56.66          16.92          61.82          37.77          5.518         -13.71         -41.87          36.33         -170.0          130.1          58.25
    0.1015              -56.64           16.9          61.78          37.77          5.502          -13.7         -41.97          36.36         -169.9          130.0          58.24
    0.1059              -56.62          16.89          61.74          37.78          5.483         -13.68         -42.08           36.4         -169.7          129.9          58.23
    0.1103               -56.6          16.87          61.69          37.78          5.462         -13.67         -42.21          36.44         -169.5          129.8          58.22
    0.1147              -56.57          16.84          61.63          37.79          5.439         -13.66         -42.35          36.48         -169.2          129.6          58.21
    0.1191              -56.55          16.82          61.57           37.8          5.412         -13.64         -42.51          36.53         -169.0          129.5           58.2
    0.1235              -56.51          16.79           61.5           37.8          5.383         -13.63         -42.69          36.58         -168.7          129.3          58.18
     0.128              -56.48          16.76          61.42          37.81          5.349         -13.61         -42.89          36.65         -168.4          129.1          58.17
    0.1324              -56.44          16.72          61.33          37.82           5.31         -13.58         -43.13          36.72         -168.0          128.9          58.15
    0.1368              -56.39          16.68          61.23          37.83          5.266         -13.56         -43.39           36.8         -167.5          128.7          58.13
    0.1412              -56.34          16.63          61.11          37.85          5.215         -13.53          -43.7           36.9         -167.0          128.4           58.1
    0.1456              -56.27          16.57          60.97          37.86          5.156         -13.49         -44.06          37.01         -166.5          128.1          58.08
      0.15               -56.2           16.5           60.8          37.88          5.086         -13.45         -44.48          37.14         -165.8          127.7          58.04
    0.1544              -56.11          16.42          60.61           37.9          5.005          -13.4         -44.98          37.29         -165.0          127.3           58.0
    0.1588              -56.01          16.33          60.38          37.92          4.907         -13.35         -45.56          37.47         -164.0          126.7          57.96
    0.1632              -55.88          16.21           60.1          37.95          4.791         -13.28         -46.27          37.69         -162.9          126.1           57.9
